<svg width="360" height="76" viewBox="0 0 360 76" fill="none" xmlns="http://www.w3.org/2000/svg">
<g clip-path="url(#clip0)">
<path d="M152.68 33.5139L147.526 58.7967H134.1L139.254 33.5139C139.658 31.5267 139.423 31.1604 137.521 31.1604H132.674C130.784 31.1604 130.388 31.5267 129.988 33.4634C129.988 33.4634 129.988 33.4971 129.988 33.5139L124.834 58.7967H111.396L116.554 33.5139C116.958 31.5267 116.723 31.1604 114.817 31.1604H109.97C108.063 31.1604 107.68 31.5309 107.276 33.5139L102.118 58.7967H88.6917L96.6044 19.9862H107.51L109.239 23.3208C110.233 22.2294 111.437 21.3684 112.772 20.7939C114.107 20.2193 115.542 19.9442 116.986 19.9862H119.769C125.02 19.9862 128.562 22.3651 129.83 26.3859C132.177 21.9146 135.578 19.9862 139.686 19.9862H142.473C150.362 19.9862 154.372 25.2954 152.68 33.5139Z" fill="white"/>
<path d="M193.625 33.5139L191.23 45.269C189.554 53.4875 183.374 58.7967 175.477 58.7967H165.306C157.422 58.7967 153.411 53.4833 155.087 45.2648L157.483 33.5139C159.155 25.2954 165.335 19.9862 173.235 19.9862H183.422C191.29 19.9862 195.305 25.2954 193.625 33.5139ZM180.187 33.5139C180.591 31.5266 180.356 31.1603 178.454 31.1603H173.607C171.7 31.1603 171.317 31.5308 170.913 33.5139L168.514 45.2648C168.11 47.2521 168.348 47.6184 170.25 47.6184H175.097C177 47.6184 177.388 47.2479 177.791 45.2648L180.187 33.5139Z" fill="white"/>
<path d="M359.622 33.5139L357.227 45.269C355.551 53.4875 349.371 58.7967 341.474 58.7967H331.304C323.419 58.7967 319.408 53.4833 321.084 45.2648L323.48 33.5139C325.152 25.2954 331.332 19.9862 339.232 19.9862H349.419C357.287 19.9862 361.302 25.2954 359.622 33.5139ZM346.184 33.5139C346.588 31.5266 346.353 31.1603 344.451 31.1603H339.604C337.698 31.1603 337.314 31.5308 336.91 33.5139L334.511 45.2648C334.107 47.2521 334.345 47.6184 336.247 47.6184H341.094C342.997 47.6184 343.385 47.2479 343.789 45.2648L346.184 33.5139Z" fill="white"/>
<path d="M277.417 30.4235C276.926 32.6298 275.74 34.6011 274.049 36.0232L267.21 41.9176C265.57 43.3548 263.508 44.1631 261.366 44.208H251.898L251.684 45.248C251.28 47.2352 251.514 47.6015 253.421 47.6015H273.907L271.629 58.7799H248.46C240.576 58.7799 236.565 53.4665 238.241 45.248L240.637 33.497C242.313 25.2785 248.493 19.9694 256.389 19.9694H266.584C274.448 19.9862 278.516 25.0175 277.417 30.4235ZM263.353 33.5139C263.757 31.5266 263.523 31.1603 261.616 31.1603H256.769C254.871 31.1561 254.467 31.5308 254.063 33.5139L253.255 37.56H261.252C261.611 37.5445 261.955 37.4074 262.232 37.1696C262.509 36.9317 262.704 36.6061 262.787 36.2422L263.353 33.5139Z" fill="white"/>
<path d="M292.512 52.2076C291.768 55.8495 289.01 58.8009 284.837 58.8009C280.665 58.8009 279.114 55.8537 279.857 52.2076C280.6 48.5615 283.359 45.6185 287.531 45.6185C291.704 45.6185 293.243 48.5615 292.512 52.2076Z" fill="#4CD62B"/>
<path d="M321.319 19.9862L319.041 31.1561L313.386 58.7925H299.964L305.618 31.1561H298.917L301.2 19.982L321.319 19.9862ZM311.35 12.7403C309.023 10.0457 309.734 5.42283 312.929 2.42089C316.124 -0.581053 320.604 -0.82525 322.942 1.87355C325.281 4.57235 324.558 9.19525 321.363 12.1972C318.168 15.1991 313.681 15.4433 311.35 12.7403Z" fill="white"/>
<path d="M36.2959 5.69226H53.333L39.1597 75.9999H22.1225L36.2959 5.69226Z" fill="white"/>
<path d="M61.2942 5.69226H78.3313L67.2883 60.7797H50.2471L61.2942 5.69226Z" fill="white"/>
<path d="M11.0471 5.69226H28.0842L17.0412 60.7797H0L11.0471 5.69226Z" fill="white"/>
<path d="M246.279 19.9862L221.085 58.7967H207.187L197.997 19.9862H212.881L216.883 45.4711L231.395 20.0073L246.279 19.9862Z" fill="white"/>
</g>
<defs>
<clipPath id="clip0">
<rect width="360" height="76" fill="white"/>
</clipPath>
</defs>
</svg>
